<?xml version="1.0" standalone="no"?>
<!DOCTYPE svg PUBLIC "-//W3C//DTD SVG 20010904//EN"
 "http://www.w3.org/TR/2001/REC-SVG-20010904/DTD/svg10.dtd">
<svg version="1.0" xmlns="http://www.w3.org/2000/svg"
 width="884.000000pt" height="884.000000pt" viewBox="0 0 884.000000 884.000000"
 preserveAspectRatio="xMidYMid meet">
<metadata>
Created by potrace 1.11, written by Peter Selinger 2001-2013
</metadata>
<g transform="translate(0.000000,884.000000) scale(0.100000,-0.100000)"
fill="#000000" stroke="none">
<path d="M2730 8826 c-3 -2 -56 -7 -119 -10 -62 -4 -141 -14 -175 -22 -393
-98 -674 -266 -915 -549 -80 -93 -181 -238 -181 -260 0 -7 -6 -18 -13 -24 -8
-6 -26 -41 -42 -78 -15 -38 -33 -81 -40 -98 -38 -86 -43 -104 -85 -290 -35
-156 -35 -147 -35 -3085 0 -2311 3 -2890 13 -2950 28 -159 64 -308 95 -385
123 -308 306 -551 562 -746 82 -62 263 -162 375 -206 124 -49 331 -97 485
-112 156 -16 3362 -15 3528 0 243 22 494 99 686 210 174 101 221 136 350 262
76 74 201 227 201 245 0 4 13 23 28 42 53 64 139 251 198 429 3 8 17 73 32
145 l27 131 0 2935 0 2935 -23 125 c-44 234 -127 440 -253 627 -28 41 -59 84
-68 95 -112 139 -209 233 -331 322 -48 35 -214 136 -223 136 -3 0 -39 15 -79
34 -116 55 -344 121 -453 132 -68 7 -3538 17 -3545 10z m2106 -568 c43 -30 57
-56 58 -113 0 -39 -5 -50 -36 -81 -32 -33 -41 -36 -89 -36 -49 0 -56 3 -85 36
-55 63 -50 131 12 185 43 38 93 41 140 9z m1935 -19 c43 -30 51 -46 51 -100 0
-45 -4 -55 -35 -86 -31 -32 -40 -35 -88 -35 -49 0 -56 3 -91 40 -50 55 -53
105 -7 157 49 55 112 64 170 24z m-1874 -326 c35 -25 54 -74 46 -116 -8 -42
-63 -97 -103 -103 -78 -13 -150 50 -150 129 0 31 7 46 38 77 54 55 107 60 169
13z m402 -8 c29 -29 33 -39 33 -84 0 -47 -3 -55 -40 -91 -45 -44 -78 -50 -135
-26 -47 19 -69 59 -69 120 0 46 3 54 37 83 60 51 119 51 174 -2z m1489 -20
c25 -27 32 -44 32 -73 0 -114 -140 -170 -218 -88 -64 66 -37 170 52 200 52 18
92 6 134 -39z m-410 -5 c70 -43 78 -138 18 -198 -63 -64 -165 -40 -200 48 -15
37 -15 44 -1 77 37 88 110 117 183 73z m-1546 -286 c37 -19 58 -53 62 -102 12
-112 -134 -174 -213 -91 -63 66 -42 161 44 200 41 19 58 17 107 -7z m617 -3
c11 -6 28 -25 37 -42 41 -79 -7 -174 -94 -186 -112 -15 -185 117 -111 202 46
53 101 61 168 26z m1314 17 c82 -43 98 -149 30 -208 -28 -25 -42 -30 -85 -30
-45 0 -54 4 -84 36 -34 35 -39 52 -35 109 7 77 105 130 174 93z m-406 -29 c25
-9 50 -44 62 -87 11 -38 -16 -103 -54 -128 -30 -20 -102 -22 -134 -4 -31 16
-61 69 -61 108 0 41 23 88 52 103 52 28 78 30 135 8z m405 -327 c41 -40 50
-81 28 -128 -27 -61 -53 -79 -117 -79 -50 0 -57 3 -89 37 -28 31 -34 45 -34
83 0 35 6 51 31 80 53 60 125 63 181 7z m-1124 -27 c64 -61 40 -164 -47 -198
-52 -21 -99 -8 -140 39 -61 69 -28 174 62 194 50 11 89 0 125 -35z m-747 15
c48 -26 73 -109 48 -162 -56 -118 -242 -78 -242 52 0 95 107 156 194 110z
m1095 -5 c94 -72 42 -225 -76 -225 -100 0 -159 117 -100 200 40 57 120 68 176
25z m691 -312 c67 -82 8 -203 -100 -203 -79 0 -138 81 -117 159 12 45 35 68
87 86 46 16 95 0 130 -42z m-1075 -4 c70 -33 93 -133 44 -192 -12 -16 -40 -34
-62 -42 -33 -11 -44 -11 -74 1 -52 22 -81 55 -87 101 -13 96 92 174 179 132z
m-743 -38 c11 -6 28 -26 37 -43 58 -112 -53 -231 -164 -174 -44 23 -65 59 -64
112 0 57 23 91 74 114 41 18 69 16 117 -9z m-778 -206 c40 -21 69 -71 69 -118
0 -30 -8 -46 -38 -78 -33 -36 -43 -41 -83 -41 -136 -2 -181 162 -64 233 37 23
76 24 116 4z m2415 -66 c48 -45 34 -146 -25 -186 -110 -74 -238 46 -177 165
38 74 135 84 202 21z m-2019 -31 c9 -7 24 -31 34 -54 22 -49 11 -99 -31 -139
-53 -50 -146 -41 -185 19 -18 27 -26 92 -15 121 12 32 59 74 88 77 36 4 89 -7
109 -24z m-747 -23 c59 -61 48 -152 -23 -195 -50 -31 -101 -26 -142 13 -62 56
-63 124 -5 184 50 51 120 50 170 -2z m1070 20 c69 -36 94 -124 51 -184 -56
-78 -146 -80 -203 -4 -42 55 -36 115 17 169 35 36 88 43 135 19z m1545 -246
c60 -53 63 -123 8 -181 -54 -56 -130 -52 -185 10 -27 32 -30 40 -25 85 4 42
10 56 41 84 50 46 110 47 161 2z m-2998 -55 c50 -31 68 -106 40 -160 -46 -88
-177 -90 -223 -3 -59 115 72 232 183 163z m-757 3 c13 -7 35 -28 48 -47 46
-68 7 -168 -72 -186 -117 -28 -202 99 -130 193 39 52 100 67 154 40z m395 -28
c49 -50 51 -110 4 -164 -56 -63 -128 -63 -186 0 -109 117 70 278 182 164z
m-1104 -15 c53 -50 43 -149 -20 -191 -60 -41 -129 -28 -170 32 -29 42 -30 94
-2 138 44 71 130 81 192 21z m337 26 c44 -27 73 -91 61 -134 -25 -87 -136
-129 -200 -73 -74 63 -67 158 16 208 39 24 82 24 123 -1z m4107 -240 c81 -76
27 -220 -82 -220 -124 0 -172 175 -65 235 39 22 116 14 147 -15z m-1857 -34
c86 -45 98 -142 25 -207 -28 -24 -43 -29 -83 -29 -43 0 -54 4 -85 35 -61 61
-48 149 28 195 38 23 78 25 115 6z m1480 -43 c31 -19 62 -72 62 -106 0 -63
-68 -127 -133 -127 -48 0 -113 56 -123 106 -20 106 101 185 194 127z m-4153
-33 c26 -26 30 -38 30 -84 0 -62 -18 -89 -79 -116 -47 -22 -86 -13 -128 27
-53 51 -54 120 -1 175 52 54 122 54 178 -2z m2373 -139 c35 -19 65 -70 65
-111 0 -66 -64 -130 -128 -130 -76 0 -146 90 -121 156 32 88 111 124 184 85z
m615 -19 c79 -75 34 -207 -76 -219 -40 -5 -48 -2 -85 31 -43 39 -55 78 -41
131 10 35 53 80 84 88 37 10 90 -4 118 -31z m-1639 -134 c36 -37 38 -43 33
-85 -17 -153 -237 -153 -254 0 -5 39 -2 48 27 80 59 67 132 69 194 5z m-402
16 c49 -25 71 -97 49 -157 -34 -89 -182 -92 -227 -6 -36 71 -5 147 74 175 38
13 58 11 104 -12z m3160 -14 c39 -11 81 -56 91 -98 15 -63 -42 -140 -112 -149
-76 -10 -148 62 -138 139 6 45 55 104 91 111 12 2 23 5 26 6 3 0 22 -4 42 -9z
m-4053 -35 c63 -57 61 -141 -5 -191 -62 -48 -142 -31 -184 39 -31 51 -24 103
19 147 50 53 115 54 170 5z m2630 -30 c29 -29 33 -39 33 -83 0 -62 -30 -106
-81 -121 -132 -39 -226 132 -117 214 58 43 114 40 165 -10z m-2088 -43 c36
-33 41 -43 41 -83 2 -110 -111 -170 -197 -104 -76 57 -72 157 8 205 52 32 101
26 148 -18z m1086 -72 c42 -25 55 -53 55 -113 0 -43 -4 -54 -34 -84 -29 -29
-43 -35 -80 -35 -84 -2 -134 56 -129 151 0 13 18 41 40 62 32 32 46 39 77 39
22 0 53 -9 71 -20z m2518 -151 c53 -27 80 -112 51 -166 -19 -38 -73 -73 -113
-73 -17 0 -45 10 -64 23 -134 90 -20 287 126 216z m-3916 -33 c45 -46 53 -84
31 -135 -38 -83 -138 -106 -201 -45 -56 53 -57 126 -3 177 57 54 123 55 173 3z
m1768 -13 c35 -25 54 -74 46 -116 -8 -42 -63 -97 -103 -103 -78 -13 -150 50
-150 128 0 29 8 47 36 77 50 56 108 61 171 14z m-748 -162 c22 -12 47 -53 52
-86 19 -136 -174 -196 -237 -74 -34 67 5 154 79 176 33 10 67 4 106 -16z m398
-135 c85 -92 0 -231 -123 -202 -79 18 -118 118 -72 186 32 47 63 62 118 56 35
-3 51 -11 77 -40z m2598 12 c45 -42 57 -82 39 -133 -16 -48 -31 -63 -80 -80
-33 -11 -44 -11 -74 1 -52 22 -81 55 -87 101 -10 76 51 143 130 143 28 0 46
-8 72 -32z m-3365 -17 c60 -62 60 -119 3 -176 -35 -35 -50 -40 -108 -36 -45 3
-105 69 -105 116 0 76 59 135 134 135 32 0 45 -7 76 -39z m-718 -107 c60 -31
78 -129 32 -183 -75 -90 -224 -37 -224 80 0 47 43 101 92 116 35 12 57 9 100
-13z m376 -82 c83 -54 61 -190 -35 -218 -112 -33 -201 73 -149 175 34 65 119
85 184 43z m1464 -93 c31 -16 61 -69 61 -108 0 -127 -181 -172 -239 -60 -26
51 -12 123 30 159 34 27 103 31 148 9z m2284 -43 c53 -62 52 -116 -3 -171 -35
-35 -50 -40 -108 -36 -45 3 -105 69 -105 116 0 81 62 139 140 131 36 -3 51
-11 76 -40z m-2663 -118 c49 -25 71 -112 43 -167 -44 -85 -178 -85 -222 0 -58
113 63 226 179 167z m-756 -64 c118 -74 35 -255 -102 -224 -42 10 -61 24 -81
61 -59 115 73 232 183 163z m374 1 c37 -20 69 -70 69 -111 0 -37 -36 -94 -70
-111 -74 -38 -174 11 -180 88 -5 54 1 78 28 104 47 47 99 57 153 30z m-744
-77 c22 -18 43 -64 43 -93 0 -63 -62 -125 -125 -125 -147 0 -179 197 -40 244
34 12 45 12 74 0 19 -8 41 -20 48 -26z m1484 -33 c40 -21 69 -71 69 -118 0
-30 -8 -46 -38 -78 -33 -36 -43 -41 -83 -41 -136 -2 -181 162 -64 233 37 23
76 24 116 4z m2291 -32 c53 -51 54 -122 0 -175 -56 -56 -128 -53 -181 7 -48
55 -45 113 6 167 53 55 119 55 175 1z m-2706 -114 c37 -13 67 -66 66 -117 0
-37 -6 -51 -35 -80 -30 -30 -41 -34 -85 -34 -116 0 -173 123 -95 204 42 44 84
52 149 27z m-716 -64 c36 -18 70 -73 70 -112 0 -36 -36 -93 -70 -110 -91 -46
-204 37 -184 135 16 80 111 125 184 87z m373 -12 c17 -8 36 -32 48 -57 15 -35
16 -48 7 -79 -17 -56 -57 -88 -110 -90 -84 -3 -130 42 -130 125 0 40 5 55 27
77 46 49 95 56 158 24z m2894 -123 c73 -44 82 -135 20 -197 -29 -30 -41 -35
-82 -35 -40 0 -53 5 -81 33 -62 60 -63 118 -4 180 31 32 44 39 76 39 21 0 53
-9 71 -20z m-2178 -146 c83 -70 42 -206 -67 -221 -96 -13 -171 92 -127 177 38
73 134 95 194 44z m-365 -144 c112 -98 -1 -274 -132 -206 -44 23 -64 52 -67
98 -3 53 16 93 58 118 48 30 99 26 141 -10z m2646 -35 c60 -39 77 -117 37
-176 -30 -45 -63 -61 -116 -56 -110 11 -152 162 -62 226 41 30 101 32 141 6z
m-3007 -39 c34 -23 51 -68 44 -117 -10 -75 -81 -119 -158 -99 -41 11 -62 32
-83 80 -12 30 -12 41 -1 74 17 49 32 64 80 80 41 15 76 9 118 -18z m-411 -76
c52 -15 82 -60 81 -122 -1 -58 -32 -98 -87 -115 -36 -11 -97 3 -123 30 -25 24
-41 88 -32 120 11 40 55 85 88 90 14 2 28 5 31 5 3 1 22 -3 42 -8z m-357 -90
c8 0 30 -14 49 -31 55 -48 61 -122 13 -172 -57 -61 -119 -64 -178 -9 -36 33
-41 43 -41 84 -1 36 5 55 26 82 26 34 77 59 104 50 8 -2 20 -4 27 -4z m-305
-85 c57 -55 54 -132 -7 -186 -27 -23 -43 -29 -80 -29 -39 0 -50 5 -84 39 -32
32 -39 46 -39 77 0 51 18 83 60 112 46 31 109 26 150 -13z m4098 -49 c86 -44
99 -142 27 -205 -30 -26 -44 -31 -85 -31 -43 0 -54 4 -85 35 -61 61 -48 149
28 195 38 23 78 25 115 6z m-3375 -135 c61 -54 65 -131 9 -184 -55 -53 -124
-52 -175 1 -55 58 -52 128 8 181 49 43 110 44 158 2z m3427 -221 c59 -46 59
-134 -1 -184 -24 -20 -41 -26 -81 -26 -45 0 -54 4 -89 39 -31 31 -39 46 -39
76 0 81 72 142 150 127 14 -2 41 -17 60 -32z m-3541 -105 c29 -29 33 -39 33
-85 0 -48 -3 -56 -36 -88 -32 -30 -44 -34 -88 -34 -44 0 -55 4 -85 34 -29 30
-35 42 -35 81 -2 118 126 174 211 92z m3640 -200 c29 -28 33 -39 34 -83 1 -85
-56 -140 -135 -129 -48 6 -75 29 -100 84 -17 39 -17 44 -2 82 36 92 133 113
203 46z m-3890 -89 c40 -21 64 -64 64 -111 0 -70 -54 -125 -123 -125 -88 0
-147 88 -113 172 27 69 106 98 172 64z m2982 -149 c65 -44 73 -136 17 -194
-26 -27 -39 -33 -75 -33 -95 0 -150 67 -129 156 7 31 47 76 76 87 34 12 79 6
111 -16z m1054 -87 c43 -16 67 -56 67 -108 0 -83 -46 -128 -130 -125 -98 4
-150 123 -88 202 17 22 89 51 111 44 11 -3 29 -9 40 -13z m-4212 -109 c28 -28
32 -38 32 -86 0 -48 -4 -58 -31 -86 -44 -43 -110 -51 -158 -18 -45 31 -58 53
-58 104 0 50 12 72 55 103 47 34 117 26 160 -17z m1308 -86 c40 -21 69 -71 69
-118 0 -30 -8 -46 -38 -78 -33 -36 -43 -41 -83 -41 -52 -1 -93 21 -115 63 -57
111 58 230 167 174z m1692 -37 c37 -26 47 -48 47 -102 0 -38 -6 -53 -33 -82
-79 -86 -217 -30 -217 88 0 29 8 47 36 77 48 54 107 61 167 19z m414 2 c81
-49 80 -169 -1 -220 -27 -17 -100 -14 -131 6 -50 33 -70 109 -42 164 17 34 74
70 111 70 17 0 45 -9 63 -20z m1069 -110 c74 -54 49 -178 -41 -208 -108 -35
-202 77 -150 178 35 67 122 80 191 30z m-3535 -68 c36 -33 41 -43 41 -84 2
-119 -127 -174 -214 -91 -80 77 -21 212 95 213 30 0 46 -8 78 -38z m-1093 -14
c43 -33 57 -83 41 -142 -21 -78 -139 -108 -198 -52 -39 38 -52 84 -35 131 16
48 31 63 79 79 40 14 83 8 113 -16z m3893 -35 c76 -71 38 -203 -64 -220 -80
-13 -139 43 -139 128 0 44 4 55 32 84 18 19 42 36 54 38 39 8 91 -5 117 -30z
m-2201 -68 c66 -43 80 -132 30 -188 -77 -89 -206 -47 -218 71 -4 44 -1 52 28
85 45 52 110 65 160 32z m-957 -24 c42 -27 59 -57 59 -107 1 -35 -5 -52 -29
-81 -63 -79 -184 -54 -212 44 -31 108 91 204 182 144z m2134 -1 c67 -40 86
-119 44 -179 -29 -41 -53 -53 -108 -53 -39 0 -51 6 -80 34 -46 47 -56 85 -33
137 34 73 112 101 177 61z m1350 -46 c14 -8 34 -35 44 -59 18 -41 18 -46 3
-84 -36 -90 -136 -115 -203 -50 -83 79 -21 225 91 213 22 -2 52 -11 65 -20z
m739 -125 c20 -21 28 -42 32 -78 4 -49 3 -53 -36 -91 -37 -37 -56 -45 -107
-41 -57 5 -105 64 -105 129 0 32 7 49 30 75 54 62 130 64 186 6z m-385 16 c64
-34 87 -120 49 -182 -24 -41 -51 -55 -106 -55 -127 0 -172 165 -62 232 40 24
78 25 119 5z m-4594 -44 c32 -23 48 -58 47 -102 -2 -52 -27 -87 -79 -110 -35
-16 -48 -17 -76 -8 -96 32 -128 132 -66 204 37 44 124 52 174 16z m411 -16
c29 -27 34 -39 34 -78 0 -85 -56 -133 -151 -128 -13 0 -41 18 -62 40 -31 31
-39 46 -39 75 0 66 35 113 93 126 50 11 89 0 125 -35z m1489 -97 c42 -39 49
-130 12 -174 -52 -62 -167 -55 -203 14 -18 36 -21 59 -13 103 18 88 136 121
204 57z m817 -11 c15 -12 33 -40 40 -62 12 -34 12 -45 0 -75 -22 -52 -55 -81
-101 -87 -76 -10 -143 51 -143 129 0 29 8 47 36 77 48 54 114 61 168 18z
m-2635 -222 c25 -25 34 -43 38 -77 5 -40 2 -49 -27 -81 -57 -65 -137 -67 -196
-6 -24 25 -29 39 -29 79 0 42 5 54 34 84 53 55 124 55 180 1z m2519 -99 c63
-61 53 -143 -24 -195 -84 -58 -207 28 -187 132 7 37 59 95 91 100 48 7 86 -4
120 -37z m-591 14 c74 -45 83 -140 18 -196 -61 -53 -115 -52 -170 3 -19 19
-36 45 -37 57 -4 60 4 82 42 119 46 43 95 49 147 17z m666 -341 c55 -56 51
-122 -11 -177 -53 -47 -123 -41 -171 14 -80 90 -5 225 114 207 17 -3 46 -21
68 -44z m-386 -3 c28 -31 33 -43 33 -87 0 -46 -4 -55 -34 -84 -60 -56 -130
-52 -185 11 -106 120 78 279 186 160z m251 -306 c20 -13 41 -38 53 -65 20 -45
20 -45 0 -89 -23 -52 -54 -75 -107 -80 -131 -12 -185 165 -71 234 41 25 83 25
125 0z"/>
</g>
</svg>
